<?xml version="1.0"?><svg width="800" height="600" xmlns="http://www.w3.org/2000/svg">
 <title>black left foot</title>
 <g>
  <title>Layer 1</title>
  <path d="m481.873993,321.394012c79.165985,-8.333008 65.868988,-131.132019 2.083008,-164.583008c-42.259003,-22.162003 -99.311005,-21.194 -137.5,-6.25c-72.437012,28.345001 -91.666,64.582993 -102.083008,135.416992c-10.416992,70.834015 24.485992,258.20401 108.333008,279.165985c75,18.75 103.944,-17.606995 95.833008,-52.083008c-8.333008,-35.416962 -49.40802,-81.294983 -52.083008,-112.499969c-6.25,-72.916992 85.416992,-79.166992 85.416992,-79.166992z" stroke-width="7" stroke="#3b3a36" fill="#3b3a36" id="svg_1"/>
  <path d="m591.713562,151.183594c-16.584229,24.086121 -48.051819,31.201691 -70.284546,15.893707c-22.233521,-15.307968 -26.813019,-47.243195 -10.22876,-71.329315c16.584167,-24.086113 48.051025,-31.200905 70.284485,-15.892921c22.231995,15.307976 26.812256,47.243202 10.228821,71.328529z" stroke-width="7" stroke="#3b3a36" fill="#3b3a36" id="svg_2"/>
  <path d="m459.45401,129.104996c-18.149017,3.090012 -35.288025,-8.654999 -38.282013,-26.235992c-2.994995,-17.581001 8.591003,-44.006004 26.739014,-47.096004c18.14798,-3.091999 35.287994,8.655003 38.281982,26.236004c2.994019,17.580994 -8.59198,44.004997 -26.738983,47.095993z" stroke-width="7" stroke="#3b3a36" fill="#3b3a36" id="svg_3"/>
  <path d="m400.598999,116.410004c-10.276001,14.575989 -25.333984,17.380997 -40.380005,6.773994c-15.04599,-10.606995 -18.584991,-40.858002 -8.30899,-55.434998c10.276001,-14.575001 25.333008,-17.380001 40.380005,-6.772999c15.04599,10.606998 18.584991,40.857998 8.30899,55.434002z" stroke-width="7" stroke="#3b3a36" fill="#3b3a36" id="svg_4"/>
  <path d="m337.751007,127.360001c-3.157013,15.209 -18.958008,24.789993 -35.294006,21.399002c-16.335999,-3.391006 -29.615997,-26.455002 -26.459015,-41.664001c3.157013,-15.209 18.958008,-24.790001 35.292999,-21.399002c16.335022,3.390999 29.617004,26.455002 26.460022,41.664001z" stroke-width="7" stroke="#3b3a36" fill="#3b3a36" id="svg_5"/>
  <path d="m271.389008,149.138c9.290985,13.856995 7.524994,31.324005 -3.942993,39.013c-11.468018,7.688004 -28.296021,2.688004 -37.587021,-11.169998c-9.289993,-13.85701 -7.523987,-31.324005 3.944,-39.012009c11.468002,-7.687988 28.296005,-2.687988 37.586014,11.169006z" stroke-width="7" stroke="#3b3a36" fill="#3b3a36" id="svg_6"/>
 </g>
</svg>
